<?xml version="1.0" encoding="UTF-8" standalone="no"?>
<!DOCTYPE svg PUBLIC "-//W3C//DTD SVG 1.1//EN"
 "http://www.w3.org/Graphics/SVG/1.1/DTD/svg11.dtd">
<!-- Generated by graphviz version 2.26.3 (20100126.1600)
 -->
<!-- Title: G Pages: 1 -->
<svg width="1146pt" height="1146pt"
 viewBox="0.00 0.00 1146.00 1146.00" xmlns="http://www.w3.org/2000/svg" xmlns:xlink="http://www.w3.org/1999/xlink">
<g id="graph1" class="graph" transform="scale(1 1) rotate(0) translate(4 1142)">
<title>G</title>
<polygon fill="white" stroke="white" points="-4,5 -4,-1142 1143,-1142 1143,5 -4,5"/>
<g id="graph2" class="cluster"><title>cluster_Global</title>
<polyline fill="none" stroke="gray" points="593,-262 1118,-262 "/>
<path fill="none" stroke="gray" d="M1118,-262C1124,-262 1130,-268 1130,-274"/>
<polyline fill="none" stroke="gray" points="1130,-274 1130,-1118 "/>
<path fill="none" stroke="gray" d="M1130,-1118C1130,-1124 1124,-1130 1118,-1130"/>
<polyline fill="none" stroke="gray" points="1118,-1130 593,-1130 "/>
<path fill="none" stroke="gray" d="M593,-1130C587,-1130 581,-1124 581,-1118"/>
<polyline fill="none" stroke="gray" points="581,-1118 581,-274 "/>
<path fill="none" stroke="gray" d="M581,-274C581,-268 587,-262 593,-262"/>
<text text-anchor="middle" x="855.5" y="-1116.1" font-family="Times Roman,serif" font-size="11.00" fill="gray">\</text>
</g>
<g id="graph3" class="cluster"><title>cluster_\flakron</title>
<polyline fill="none" stroke="gray" points="601,-314 1110,-314 "/>
<path fill="none" stroke="gray" d="M1110,-314C1116,-314 1122,-320 1122,-326"/>
<polyline fill="none" stroke="gray" points="1122,-326 1122,-1044 "/>
<path fill="none" stroke="gray" d="M1122,-1044C1122,-1050 1116,-1056 1110,-1056"/>
<polyline fill="none" stroke="gray" points="1110,-1056 601,-1056 "/>
<path fill="none" stroke="gray" d="M601,-1056C595,-1056 589,-1050 589,-1044"/>
<polyline fill="none" stroke="gray" points="589,-1044 589,-326 "/>
<path fill="none" stroke="gray" d="M589,-326C589,-320 595,-314 601,-314"/>
<text text-anchor="middle" x="855.5" y="-1042.1" font-family="Times Roman,serif" font-size="11.00" fill="gray">flakron</text>
</g>
<g id="graph4" class="cluster"><title>cluster_\flakron\blog</title>
<polyline fill="none" stroke="gray" points="609,-322 1102,-322 "/>
<path fill="none" stroke="gray" d="M1102,-322C1108,-322 1114,-328 1114,-334"/>
<polyline fill="none" stroke="gray" points="1114,-334 1114,-1014 "/>
<path fill="none" stroke="gray" d="M1114,-1014C1114,-1020 1108,-1026 1102,-1026"/>
<polyline fill="none" stroke="gray" points="1102,-1026 609,-1026 "/>
<path fill="none" stroke="gray" d="M609,-1026C603,-1026 597,-1020 597,-1014"/>
<polyline fill="none" stroke="gray" points="597,-1014 597,-334 "/>
<path fill="none" stroke="gray" d="M597,-334C597,-328 603,-322 609,-322"/>
<text text-anchor="middle" x="855.5" y="-1012.1" font-family="Times Roman,serif" font-size="11.00" fill="gray">blog</text>
</g>
<g id="graph5" class="cluster"><title>cluster_\flakron\blog\app</title>
<polyline fill="none" stroke="gray" points="617,-330 1094,-330 "/>
<path fill="none" stroke="gray" d="M1094,-330C1100,-330 1106,-336 1106,-342"/>
<polyline fill="none" stroke="gray" points="1106,-342 1106,-984 "/>
<path fill="none" stroke="gray" d="M1106,-984C1106,-990 1100,-996 1094,-996"/>
<polyline fill="none" stroke="gray" points="1094,-996 617,-996 "/>
<path fill="none" stroke="gray" d="M617,-996C611,-996 605,-990 605,-984"/>
<polyline fill="none" stroke="gray" points="605,-984 605,-342 "/>
<path fill="none" stroke="gray" d="M605,-342C605,-336 611,-330 617,-330"/>
<text text-anchor="middle" x="855.5" y="-982.1" font-family="Times Roman,serif" font-size="11.00" fill="gray">app</text>
</g>
<g id="graph6" class="cluster"><title>cluster_\flakron\blog\app\services</title>
<polyline fill="none" stroke="gray" points="625,-800 1070,-800 "/>
<path fill="none" stroke="gray" d="M1070,-800C1076,-800 1082,-806 1082,-812"/>
<polyline fill="none" stroke="gray" points="1082,-812 1082,-954 "/>
<path fill="none" stroke="gray" d="M1082,-954C1082,-960 1076,-966 1070,-966"/>
<polyline fill="none" stroke="gray" points="1070,-966 625,-966 "/>
<path fill="none" stroke="gray" d="M625,-966C619,-966 613,-960 613,-954"/>
<polyline fill="none" stroke="gray" points="613,-954 613,-812 "/>
<path fill="none" stroke="gray" d="M613,-812C613,-806 619,-800 625,-800"/>
<text text-anchor="middle" x="847.5" y="-952.1" font-family="Times Roman,serif" font-size="11.00" fill="gray">services</text>
</g>
<g id="graph7" class="cluster"><title>cluster_\flakron\blog\app\services\impl</title>
<polyline fill="none" stroke="gray" points="952,-808 1062,-808 "/>
<path fill="none" stroke="gray" d="M1062,-808C1068,-808 1074,-814 1074,-820"/>
<polyline fill="none" stroke="gray" points="1074,-820 1074,-924 "/>
<path fill="none" stroke="gray" d="M1074,-924C1074,-930 1068,-936 1062,-936"/>
<polyline fill="none" stroke="gray" points="1062,-936 952,-936 "/>
<path fill="none" stroke="gray" d="M952,-936C946,-936 940,-930 940,-924"/>
<polyline fill="none" stroke="gray" points="940,-924 940,-820 "/>
<path fill="none" stroke="gray" d="M940,-820C940,-814 946,-808 952,-808"/>
<text text-anchor="middle" x="1007" y="-922.1" font-family="Times Roman,serif" font-size="11.00" fill="gray">impl</text>
</g>
<g id="graph8" class="cluster"><title>cluster_\flakron\blog\app\models</title>
<polyline fill="none" stroke="gray" points="984,-420 1030,-420 "/>
<path fill="none" stroke="gray" d="M1030,-420C1036,-420 1042,-426 1042,-432"/>
<polyline fill="none" stroke="gray" points="1042,-432 1042,-536 "/>
<path fill="none" stroke="gray" d="M1042,-536C1042,-542 1036,-548 1030,-548"/>
<polyline fill="none" stroke="gray" points="1030,-548 984,-548 "/>
<path fill="none" stroke="gray" d="M984,-548C978,-548 972,-542 972,-536"/>
<polyline fill="none" stroke="gray" points="972,-536 972,-432 "/>
<path fill="none" stroke="gray" d="M972,-432C972,-426 978,-420 984,-420"/>
<text text-anchor="middle" x="1007" y="-534.1" font-family="Times Roman,serif" font-size="11.00" fill="gray">models</text>
</g>
<g id="graph9" class="cluster"><title>cluster_\flakron\blog\app\providers</title>
<polyline fill="none" stroke="gray" points="928,-338 1086,-338 "/>
<path fill="none" stroke="gray" d="M1086,-338C1092,-338 1098,-344 1098,-350"/>
<polyline fill="none" stroke="gray" points="1098,-350 1098,-400 "/>
<path fill="none" stroke="gray" d="M1098,-400C1098,-406 1092,-412 1086,-412"/>
<polyline fill="none" stroke="gray" points="1086,-412 928,-412 "/>
<path fill="none" stroke="gray" d="M928,-412C922,-412 916,-406 916,-400"/>
<polyline fill="none" stroke="gray" points="916,-400 916,-350 "/>
<path fill="none" stroke="gray" d="M916,-350C916,-344 922,-338 928,-338"/>
<text text-anchor="middle" x="1007" y="-398.1" font-family="Times Roman,serif" font-size="11.00" fill="gray">providers</text>
</g>
<g id="graph10" class="cluster"><title>cluster_\flakron\blog\app\controllers</title>
<polyline fill="none" stroke="gray" points="952,-556 1062,-556 "/>
<path fill="none" stroke="gray" d="M1062,-556C1068,-556 1074,-562 1074,-568"/>
<polyline fill="none" stroke="gray" points="1074,-568 1074,-780 "/>
<path fill="none" stroke="gray" d="M1074,-780C1074,-786 1068,-792 1062,-792"/>
<polyline fill="none" stroke="gray" points="1062,-792 952,-792 "/>
<path fill="none" stroke="gray" d="M952,-792C946,-792 940,-786 940,-780"/>
<polyline fill="none" stroke="gray" points="940,-780 940,-568 "/>
<path fill="none" stroke="gray" d="M940,-568C940,-562 946,-556 952,-556"/>
<text text-anchor="middle" x="1007" y="-778.1" font-family="Times Roman,serif" font-size="11.00" fill="gray">controllers</text>
</g>
<!-- \\flakron\\blog\\app\\services\\impl\\UserServiceImpl -->
<g id="node7" class="node"><title>\\flakron\\blog\\app\\services\\impl\\UserServiceImpl</title>
<polygon fill="none" stroke="black" points="1066,-852 948,-852 948,-816 1066,-816 1066,-852"/>
<text text-anchor="middle" x="1007" y="-831.1" font-family="Courier,monospace" font-size="11.00">UserServiceImpl</text>
</g>
<!-- \\flakron\\blog\\app\\services\\UserService -->
<g id="node10" class="node"><title>\\flakron\\blog\\app\\services\\UserService</title>
<polygon fill="none" stroke="black" points="712,-852 622,-852 622,-816 712,-816 712,-852"/>
<text text-anchor="middle" x="667" y="-831.1" font-family="Courier,monospace" font-size="11.00">UserService</text>
</g>
<!-- \\flakron\\blog\\app\\services\\impl\\UserServiceImpl&#45;&gt;\\flakron\\blog\\app\\services\\UserService -->
<g id="edge25" class="edge"><title>\\flakron\\blog\\app\\services\\impl\\UserServiceImpl&#45;&gt;\\flakron\\blog\\app\\services\\UserService</title>
<path fill="none" stroke="black" stroke-dasharray="1,5" d="M947.777,-834C884.468,-834 784.856,-834 722.867,-834"/>
<polygon fill="none" stroke="black" points="722.501,-830.5 712.501,-834 722.501,-837.5 722.501,-830.5"/>
</g>
<!-- \\flakron\\blog\\app\\services\\impl\\PostServiceImpl -->
<g id="node8" class="node"><title>\\flakron\\blog\\app\\services\\impl\\PostServiceImpl</title>
<polygon fill="none" stroke="black" points="1066,-906 948,-906 948,-870 1066,-870 1066,-906"/>
<text text-anchor="middle" x="1007" y="-885.1" font-family="Courier,monospace" font-size="11.00">PostServiceImpl</text>
</g>
<!-- \\flakron\\blog\\app\\services\\PostService -->
<g id="node9" class="node"><title>\\flakron\\blog\\app\\services\\PostService</title>
<polygon fill="none" stroke="black" points="712,-906 622,-906 622,-870 712,-870 712,-906"/>
<text text-anchor="middle" x="667" y="-885.1" font-family="Courier,monospace" font-size="11.00">PostService</text>
</g>
<!-- \\flakron\\blog\\app\\services\\impl\\PostServiceImpl&#45;&gt;\\flakron\\blog\\app\\services\\PostService -->
<g id="edge31" class="edge"><title>\\flakron\\blog\\app\\services\\impl\\PostServiceImpl&#45;&gt;\\flakron\\blog\\app\\services\\PostService</title>
<path fill="none" stroke="black" stroke-dasharray="1,5" d="M947.777,-888C884.468,-888 784.856,-888 722.867,-888"/>
<polygon fill="none" stroke="black" points="722.501,-884.5 712.501,-888 722.501,-891.5 722.501,-884.5"/>
</g>
<!-- \\flakron\\blog\\app\\models\\User -->
<g id="node12" class="node"><title>\\flakron\\blog\\app\\models\\User</title>
<polygon fill="none" stroke="black" points="1034,-464 980,-464 980,-428 1034,-428 1034,-464"/>
<text text-anchor="middle" x="1007" y="-443.1" font-family="Courier,monospace" font-size="11.00">User</text>
</g>
<!-- \\Eloquent -->
<g id="node26" class="node"><title>\\Eloquent</title>
<ellipse fill="none" stroke="black" cx="667" cy="-234" rx="58.1882" ry="18.3848"/>
<text text-anchor="middle" x="667" y="-230.4" font-family="Times Roman,serif" font-size="14.00" fill="gray">\Eloquent</text>
</g>
<!-- \\flakron\\blog\\app\\models\\User&#45;&gt;\\Eloquent -->
<g id="edge11" class="edge"><title>\\flakron\\blog\\app\\models\\User&#45;&gt;\\Eloquent</title>
<path fill="none" stroke="black" d="M979.614,-443.125C959.729,-439.709 933.37,-432.253 916,-416 860.677,-364.235 911.971,-304.301 852,-258 818.23,-231.928 770.23,-226.333 731.586,-227.044"/>
<polygon fill="none" stroke="black" points="731.347,-223.55 721.467,-227.376 731.577,-230.546 731.347,-223.55"/>
</g>
<!-- \\UserInterface -->
<g id="node28" class="node"><title>\\UserInterface</title>
<ellipse fill="none" stroke="black" cx="667" cy="-180" rx="80.1095" ry="18.3848"/>
<text text-anchor="middle" x="667" y="-176.4" font-family="Times Roman,serif" font-size="14.00" fill="gray">\UserInterface</text>
</g>
<!-- \\flakron\\blog\\app\\models\\User&#45;&gt;\\UserInterface -->
<g id="edge13" class="edge"><title>\\flakron\\blog\\app\\models\\User&#45;&gt;\\UserInterface</title>
<path fill="none" stroke="black" stroke-dasharray="1,5" d="M979.609,-443.627C959.455,-440.47 932.757,-433.118 916,-416 848.042,-346.58 925.718,-270.27 852,-207 824.763,-183.623 786.536,-175.404 751.897,-173.61"/>
<polygon fill="none" stroke="black" points="751.874,-170.107 741.758,-173.258 751.631,-177.103 751.874,-170.107"/>
</g>
<!-- \\RemindableInterface -->
<g id="node30" class="node"><title>\\RemindableInterface</title>
<ellipse fill="none" stroke="black" cx="667" cy="-126" rx="114.051" ry="18.3848"/>
<text text-anchor="middle" x="667" y="-122.4" font-family="Times Roman,serif" font-size="14.00" fill="gray">\RemindableInterface</text>
</g>
<!-- \\flakron\\blog\\app\\models\\User&#45;&gt;\\RemindableInterface -->
<g id="edge15" class="edge"><title>\\flakron\\blog\\app\\models\\User&#45;&gt;\\RemindableInterface</title>
<path fill="none" stroke="black" stroke-dasharray="1,5" d="M979.74,-443.966C959.384,-440.993 932.363,-433.722 916,-416 834.393,-327.612 940.959,-233.984 852,-153 834.253,-136.844 811.326,-127.769 787.691,-123.031"/>
<polygon fill="none" stroke="black" points="787.984,-119.529 777.531,-121.258 786.78,-126.425 787.984,-119.529"/>
</g>
<!-- \\flakron\\blog\\app\\models\\Post -->
<g id="node13" class="node"><title>\\flakron\\blog\\app\\models\\Post</title>
<polygon fill="none" stroke="black" points="1034,-518 980,-518 980,-482 1034,-482 1034,-518"/>
<text text-anchor="middle" x="1007" y="-497.1" font-family="Courier,monospace" font-size="11.00">Post</text>
</g>
<!-- \\flakron\\blog\\app\\models\\Post&#45;&gt;\\Eloquent -->
<g id="edge19" class="edge"><title>\\flakron\\blog\\app\\models\\Post&#45;&gt;\\Eloquent</title>
<path fill="none" stroke="black" d="M979.626,-498.649C959.482,-496.219 932.787,-489.772 916,-473 845.471,-402.533 927.917,-322.627 852,-258 818.991,-229.9 769.926,-224.623 730.619,-225.985"/>
<polygon fill="none" stroke="black" points="730.407,-222.491 720.592,-226.481 730.753,-229.482 730.407,-222.491"/>
</g>
<!-- \\flakron\\blog\\app\\providers\\StorageServiceProvider -->
<g id="node15" class="node"><title>\\flakron\\blog\\app\\providers\\StorageServiceProvider</title>
<polygon fill="none" stroke="black" points="1089,-382 925,-382 925,-346 1089,-346 1089,-382"/>
<text text-anchor="middle" x="1007" y="-361.1" font-family="Courier,monospace" font-size="11.00">StorageServiceProvider</text>
</g>
<!-- \\Illuminate\\Support\\ServiceProvider -->
<g id="node34" class="node"><title>\\Illuminate\\Support\\ServiceProvider</title>
<ellipse fill="none" stroke="black" cx="667" cy="-72" rx="184.055" ry="18.3848"/>
<text text-anchor="middle" x="667" y="-68.4" font-family="Times Roman,serif" font-size="14.00" fill="gray">\Illuminate\Support\ServiceProvider</text>
</g>
<!-- \\flakron\\blog\\app\\providers\\StorageServiceProvider&#45;&gt;\\Illuminate\\Support\\ServiceProvider -->
<g id="edge21" class="edge"><title>\\flakron\\blog\\app\\providers\\StorageServiceProvider&#45;&gt;\\Illuminate\\Support\\ServiceProvider</title>
<path fill="none" stroke="black" d="M924.302,-348.733C921.341,-346.738 918.554,-344.503 916,-342 836.23,-263.835 935.291,-173.403 852,-99 846.425,-94.0198 840.356,-89.7172 833.926,-86.0105"/>
<polygon fill="none" stroke="black" points="835.432,-82.8482 824.948,-81.3177 832.189,-89.0519 835.432,-82.8482"/>
</g>
<!-- \\flakron\\blog\\app\\controllers\\LoginController -->
<g id="node17" class="node"><title>\\flakron\\blog\\app\\controllers\\LoginController</title>
<polygon fill="none" stroke="black" points="1066,-762 948,-762 948,-726 1066,-726 1066,-762"/>
<text text-anchor="middle" x="1007" y="-741.1" font-family="Courier,monospace" font-size="11.00">LoginController</text>
</g>
<!-- \\BaseController -->
<g id="node24" class="node"><title>\\BaseController</title>
<polygon fill="none" stroke="black" points="722,-306 612,-306 612,-270 722,-270 722,-306"/>
<text text-anchor="middle" x="667" y="-285.1" font-family="Courier,monospace" font-size="11.00">BaseController</text>
</g>
<!-- \\flakron\\blog\\app\\controllers\\LoginController&#45;&gt;\\BaseController -->
<g id="edge23" class="edge"><title>\\flakron\\blog\\app\\controllers\\LoginController&#45;&gt;\\BaseController</title>
<path fill="none" stroke="black" d="M947.997,-733.577C936.602,-729.683 925.325,-724.337 916,-717 775.414,-606.382 699.032,-392.813 675.225,-316.207"/>
<polygon fill="none" stroke="black" points="678.478,-314.876 672.214,-306.331 671.783,-316.917 678.478,-314.876"/>
</g>
<!-- \\flakron\\blog\\app\\controllers\\HomeController -->
<g id="node18" class="node"><title>\\flakron\\blog\\app\\controllers\\HomeController</title>
<polygon fill="none" stroke="black" points="1062,-708 952,-708 952,-672 1062,-672 1062,-708"/>
<text text-anchor="middle" x="1007" y="-687.1" font-family="Courier,monospace" font-size="11.00">HomeController</text>
</g>
<!-- \\flakron\\blog\\app\\controllers\\HomeController&#45;&gt;\\BaseController -->
<g id="edge27" class="edge"><title>\\flakron\\blog\\app\\controllers\\HomeController&#45;&gt;\\BaseController</title>
<path fill="none" stroke="black" d="M951.188,-680.074C938.822,-676.132 926.337,-670.641 916,-663 787.218,-567.808 705.06,-384.728 677.402,-315.46"/>
<polygon fill="none" stroke="black" points="680.634,-314.116 673.718,-306.09 674.12,-316.677 680.634,-314.116"/>
</g>
<!-- \\flakron\\blog\\app\\controllers\\ViewController -->
<g id="node19" class="node"><title>\\flakron\\blog\\app\\controllers\\ViewController</title>
<polygon fill="none" stroke="black" points="1062,-654 952,-654 952,-618 1062,-618 1062,-654"/>
<text text-anchor="middle" x="1007" y="-633.1" font-family="Courier,monospace" font-size="11.00">ViewController</text>
</g>
<!-- \\flakron\\blog\\app\\controllers\\ViewController&#45;&gt;\\BaseController -->
<g id="edge29" class="edge"><title>\\flakron\\blog\\app\\controllers\\ViewController&#45;&gt;\\BaseController</title>
<path fill="none" stroke="black" d="M951.109,-625.363C938.881,-621.458 926.475,-616.162 916,-609 799.115,-529.079 712.422,-377.095 680.451,-315.225"/>
<polygon fill="none" stroke="black" points="683.455,-313.412 675.793,-306.094 677.219,-316.592 683.455,-313.412"/>
</g>
<!-- \\flakron\\blog\\app\\controllers\\PostController -->
<g id="node20" class="node"><title>\\flakron\\blog\\app\\controllers\\PostController</title>
<polygon fill="none" stroke="black" points="1062,-600 952,-600 952,-564 1062,-564 1062,-600"/>
<text text-anchor="middle" x="1007" y="-579.1" font-family="Courier,monospace" font-size="11.00">PostController</text>
</g>
<!-- \\flakron\\blog\\app\\controllers\\PostController&#45;&gt;\\BaseController -->
<g id="edge39" class="edge"><title>\\flakron\\blog\\app\\controllers\\PostController&#45;&gt;\\BaseController</title>
<path fill="none" stroke="black" d="M951.12,-568.426C939.021,-564.186 926.667,-558.785 916,-552 812.479,-486.151 722.371,-367.722 685.17,-314.809"/>
<polygon fill="none" stroke="black" points="687.838,-312.515 679.253,-306.307 682.093,-316.514 687.838,-312.515"/>
</g>
<!-- \\ExampleTest -->
<g id="node21" class="node"><title>\\ExampleTest</title>
<polygon fill="none" stroke="black" points="1052,-1100 962,-1100 962,-1064 1052,-1064 1052,-1100"/>
<text text-anchor="middle" x="1007" y="-1079.1" font-family="Courier,monospace" font-size="11.00">ExampleTest</text>
</g>
<!-- \\TestCase -->
<g id="node22" class="node"><title>\\TestCase</title>
<polygon fill="none" stroke="black" points="702,-1100 632,-1100 632,-1064 702,-1064 702,-1100"/>
<text text-anchor="middle" x="667" y="-1079.1" font-family="Courier,monospace" font-size="11.00">TestCase</text>
</g>
<!-- \\ExampleTest&#45;&gt;\\TestCase -->
<g id="edge17" class="edge"><title>\\ExampleTest&#45;&gt;\\TestCase</title>
<path fill="none" stroke="black" d="M961.499,-1082C896.706,-1082 778.503,-1082 713.284,-1082"/>
<polygon fill="none" stroke="black" points="712.902,-1078.5 702.902,-1082 712.902,-1085.5 712.902,-1078.5"/>
</g>
<!-- \\Illuminate\\Foundation\\Testing\\TestCase -->
<g id="node41" class="node"><title>\\Illuminate\\Foundation\\Testing\\TestCase</title>
<ellipse fill="none" stroke="black" cx="205" cy="-1082" rx="205.061" ry="18.3848"/>
<text text-anchor="middle" x="205" y="-1078.4" font-family="Times Roman,serif" font-size="14.00" fill="gray">\Illuminate\Foundation\Testing\TestCase</text>
</g>
<!-- \\TestCase&#45;&gt;\\Illuminate\\Foundation\\Testing\\TestCase -->
<g id="edge33" class="edge"><title>\\TestCase&#45;&gt;\\Illuminate\\Foundation\\Testing\\TestCase</title>
<path fill="none" stroke="black" d="M631.132,-1082C585.132,-1082 501.594,-1082 420.593,-1082"/>
<polygon fill="none" stroke="black" points="420.217,-1078.5 410.217,-1082 420.217,-1085.5 420.217,-1078.5"/>
</g>
<!-- \\DatabaseSeeder -->
<g id="node23" class="node"><title>\\DatabaseSeeder</title>
<polygon fill="none" stroke="black" points="1062,-306 952,-306 952,-270 1062,-270 1062,-306"/>
<text text-anchor="middle" x="1007" y="-285.1" font-family="Courier,monospace" font-size="11.00">DatabaseSeeder</text>
</g>
<!-- \\Seeder -->
<g id="node43" class="node"><title>\\Seeder</title>
<ellipse fill="none" stroke="black" cx="667" cy="-18" rx="48.7904" ry="18.3848"/>
<text text-anchor="middle" x="667" y="-14.4" font-family="Times Roman,serif" font-size="14.00" fill="gray">\Seeder</text>
</g>
<!-- \\DatabaseSeeder&#45;&gt;\\Seeder -->
<g id="edge35" class="edge"><title>\\DatabaseSeeder&#45;&gt;\\Seeder</title>
<path fill="none" stroke="black" d="M1001.37,-269.881C985.948,-223.613 938.353,-100.833 852,-45 814.593,-20.8139 764.127,-14.7998 725.353,-14.4251"/>
<polygon fill="none" stroke="black" points="725.247,-10.9253 715.256,-14.4509 725.265,-17.9253 725.247,-10.9253"/>
</g>
<!-- \\Controller -->
<g id="node45" class="node"><title>\\Controller</title>
<ellipse fill="none" stroke="black" cx="205" cy="-288" rx="63.1385" ry="18.3848"/>
<text text-anchor="middle" x="205" y="-284.4" font-family="Times Roman,serif" font-size="14.00" fill="gray">\Controller</text>
</g>
<!-- \\BaseController&#45;&gt;\\Controller -->
<g id="edge37" class="edge"><title>\\BaseController&#45;&gt;\\Controller</title>
<path fill="none" stroke="black" d="M611.272,-288C528.111,-288 371.429,-288 278.831,-288"/>
<polygon fill="none" stroke="black" points="278.695,-284.5 268.694,-288 278.694,-291.5 278.695,-284.5"/>
</g>
</g>
</svg>
